<svg width="30" height="30" viewBox="0 0 30 30" fill="none" xmlns="http://www.w3.org/2000/svg">
<path d="M19.2188 12.1875V11.7188C19.3431 11.7188 19.4623 11.6693 19.5502 11.5815C19.6381 11.4936 19.6875 11.3743 19.6875 11.25V9.84375C19.6875 8.60053 19.1936 7.40827 18.3146 6.52917C17.4355 5.65012 16.2432 5.15625 15 5.15625C13.7568 5.15625 12.5645 5.65012 11.6854 6.52917C10.8064 7.40827 10.3125 8.60053 10.3125 9.84375V11.25C10.3125 11.3743 10.3619 11.4936 10.4498 11.5815C10.5377 11.6693 10.6569 11.7188 10.7812 11.7188V12.1875C10.7823 12.9722 11.0022 13.7411 11.4163 14.4077C11.8303 15.0743 12.4221 15.6122 13.125 15.9609V16.5169L10.3847 17.2622C9.69173 17.454 9.08058 17.8673 8.64436 18.4389C8.20819 19.0105 7.97091 19.7091 7.96875 20.4281V23.4375C7.96875 23.5618 8.01816 23.6811 8.10605 23.769C8.19394 23.8568 8.31319 23.9062 8.4375 23.9062H21.5625C21.6868 23.9062 21.8061 23.8568 21.894 23.769C21.9818 23.6811 22.0312 23.5618 22.0312 23.4375V20.4281C22.029 19.7089 21.7916 19.0101 21.3551 18.4384C20.9187 17.8666 20.3071 17.4534 19.6139 17.2617L16.875 16.5169V15.9609C17.5779 15.6122 18.1697 15.0743 18.5837 14.4077C18.9978 13.7411 19.2177 12.9722 19.2188 12.1875ZM11.25 9.84375C11.25 8.8492 11.6451 7.89534 12.3483 7.19208C13.0516 6.48886 14.0055 6.09375 15 6.09375C15.9945 6.09375 16.9484 6.48886 17.6517 7.19208C18.3549 7.89534 18.75 8.8492 18.75 9.84375V10.7583C18.3745 10.7057 18.0176 10.5624 17.7101 10.3406C17.4026 10.1188 17.154 9.82533 16.9856 9.48563L16.8258 9.16547C16.7925 9.09914 16.744 9.04167 16.6843 8.9978C16.6245 8.95387 16.5551 8.92477 16.4819 8.91286C16.4087 8.90095 16.3337 8.90662 16.2631 8.92936C16.1925 8.95205 16.1283 8.99123 16.0758 9.04359L15.2981 9.82031C14.9942 10.1259 14.6326 10.3682 14.2344 10.5331C13.8362 10.698 13.4093 10.7824 12.9783 10.7812H11.25V9.84375ZM11.7188 12.1875V11.7188H12.9783C13.5324 11.7203 14.0814 11.6119 14.5934 11.3998C15.1054 11.1877 15.5702 10.8761 15.9609 10.4831L16.2891 10.155C16.7347 10.886 17.4505 11.412 18.2812 11.6189V12.1875C18.2812 13.0577 17.9355 13.8923 17.3202 14.5077C16.7048 15.123 15.8702 15.4688 15 15.4688C14.1298 15.4688 13.2952 15.123 12.6798 14.5077C12.0645 13.8923 11.7188 13.0577 11.7188 12.1875ZM15.4688 20.1562V18.9698L17.1562 17.5636L17.8125 17.7417V18.5545L15 21.367L12.1875 18.5545V17.7431L12.8438 17.565L14.5312 18.9713V20.1562H15.4688ZM21.0938 20.4281V22.9688H8.90625V20.4281C8.90794 19.9144 9.07758 19.4154 9.38925 19.0071C9.70097 18.5987 10.1376 18.3035 10.6327 18.1664L11.25 18V18.75C11.25 18.8743 11.2994 18.9935 11.3873 19.0814L14.6686 22.3627C14.7565 22.4505 14.8757 22.4999 15 22.4999C15.1243 22.4999 15.2435 22.4505 15.3314 22.3627L18.6127 19.0814C18.7006 18.9935 18.75 18.8743 18.75 18.75V18L19.3659 18.1678C19.8609 18.3047 20.2977 18.5997 20.6096 19.0077C20.9215 19.4158 21.0915 19.9145 21.0938 20.4281ZM16.1011 17.2233L15 18.1406L13.8989 17.2238C13.9496 17.1808 13.9904 17.1273 14.0186 17.0672C14.0469 17.007 14.0618 16.9415 14.0625 16.875V16.2975C14.6791 16.4425 15.3209 16.4425 15.9375 16.2975V16.875C15.9383 16.9414 15.9532 17.0068 15.9815 17.0669C16.0097 17.127 16.0505 17.1803 16.1011 17.2233Z" fill="white"/>
<path d="M16.875 12.6562H15.9375C15.9375 12.9049 15.8387 13.1433 15.6629 13.3192C15.4871 13.495 15.2486 13.5938 15 13.5938C14.7514 13.5938 14.5129 13.495 14.3371 13.3192C14.1613 13.1433 14.0625 12.9049 14.0625 12.6562H13.125C13.125 13.1535 13.3225 13.6305 13.6742 13.9821C14.0258 14.3337 14.5027 14.5312 15 14.5312C15.4973 14.5312 15.9742 14.3337 16.3258 13.9821C16.6775 13.6305 16.875 13.1535 16.875 12.6562Z" fill="white"/>
<path d="M16.0822 2.39298L17.2072 1.26798L16.5435 0.60611L14.6685 2.48111C14.5807 2.56901 14.5312 2.68822 14.5312 2.81252C14.5312 2.93681 14.5807 3.05602 14.6685 3.14392L16.5435 5.01891L17.2063 4.35611L16.1919 3.34173C18.9484 3.62197 21.5163 4.86975 23.4401 6.86363C25.3638 8.8575 26.5189 11.4685 26.7003 14.2332C26.8817 16.9979 26.0776 19.7374 24.4309 21.9655C22.7842 24.1936 20.4013 25.7663 17.7051 26.4042L17.9197 27.3164C20.8472 26.6221 23.4315 24.9075 25.2093 22.4803C26.9871 20.053 27.8421 17.0718 27.6209 14.0713C27.3997 11.0708 26.1167 8.24719 24.0023 6.10692C21.8877 3.96661 19.0799 2.6496 16.0822 2.39205V2.39298Z" fill="white"/>
<path d="M13.4565 24.9811L12.7937 25.6439L13.8081 26.6583C11.0517 26.3781 8.4837 25.1303 6.55999 23.1364C4.63624 21.1426 3.48116 18.5315 3.29977 15.7669C3.11838 13.0022 3.92241 10.2627 5.56915 8.03453C7.21587 5.80642 9.59881 4.23379 12.295 3.59581L12.0803 2.68362C9.15185 3.37713 6.56637 5.09143 4.7877 7.519C3.00904 9.94651 2.15359 12.9284 2.37484 15.9297C2.5961 18.931 3.87956 21.7552 5.99496 23.8957C8.11038 26.0362 10.9193 27.3528 13.9178 27.6094L12.7928 28.7344L13.4556 29.3972L15.3306 27.5222C15.4185 27.4343 15.4678 27.3151 15.4678 27.1908C15.4678 27.0665 15.4185 26.9473 15.3306 26.8594L13.4565 24.9811Z" fill="white"/>
</svg>
