<svg width="25" height="25" viewBox="0 0 25 25" fill="none" xmlns="http://www.w3.org/2000/svg">
<path d="M0.626953 3.09676e-07C0.542183 -8.39822e-05 0.458278 0.0170404 0.380321 0.050336C0.302364 0.0836317 0.231977 0.132406 0.173424 0.193704C0.114871 0.255001 0.0693703 0.327547 0.0396782 0.406947C0.00998615 0.486346 -0.00327929 0.570947 0.000685459 0.655624L0.0545053 1.77605C0.0550905 1.78586 0.0559062 1.79565 0.0569517 1.80541L0.162145 2.9234C0.163543 2.93322 0.165174 2.94301 0.167038 2.95275L0.326051 4.0634C0.326673 4.07238 0.327488 4.08136 0.328497 4.09031L0.533991 5.19606C0.536201 5.2059 0.538648 5.21569 0.54133 5.22542L0.800644 6.31649C0.802853 6.32634 0.805301 6.33612 0.807983 6.34585L1.11867 7.42469C1.12092 7.43372 1.12336 7.44269 1.12601 7.4516L1.48562 8.51577C1.48868 8.52481 1.49194 8.53378 1.49541 8.54268L1.9015 9.58727C1.90537 9.59634 1.90945 9.60531 1.91374 9.61418L2.36876 10.6392C2.37266 10.6474 2.37674 10.6556 2.38099 10.6637L2.88249 11.6691C2.88639 11.6774 2.89047 11.6855 2.89472 11.6936L3.44026 12.6746C3.44493 12.6837 3.44983 12.6926 3.45494 12.7015L4.04696 13.6556C4.05247 13.6638 4.05818 13.672 4.06408 13.68L4.69769 14.6047C4.70323 14.6122 4.70894 14.6196 4.71481 14.6268L5.39245 15.5221C5.39797 15.5304 5.40368 15.5386 5.40958 15.5466L6.12881 16.4102C6.13519 16.4168 6.14171 16.4233 6.14838 16.4297L6.9043 17.2615C6.91065 17.269 6.91718 17.2763 6.92387 17.2835L7.71649 18.0761C7.72368 18.0828 7.73102 18.0893 7.73851 18.0957L8.57027 18.8516C8.57665 18.8583 8.58318 18.8648 8.58984 18.8712L9.45341 19.5904C9.46142 19.5963 9.46958 19.602 9.47787 19.6075L10.3732 20.2827C10.3804 20.2886 10.3878 20.2943 10.3953 20.2999L11.32 20.9359C11.328 20.941 11.3362 20.9459 11.3444 20.9506L12.2961 21.5426C12.3049 21.5485 12.3139 21.5543 12.323 21.5597L13.3064 22.1053C13.3145 22.1095 13.3226 22.1136 13.3309 22.1175L14.3363 22.619C14.3444 22.6233 14.3526 22.6273 14.3608 22.6312L15.3858 23.0863C15.3947 23.0906 15.4037 23.0946 15.4127 23.0985L16.4573 23.5046C16.4662 23.5081 16.4752 23.5113 16.4842 23.5144L17.5484 23.874C17.5573 23.8766 17.5663 23.8791 17.5753 23.8813L18.6542 24.192C18.6639 24.1947 18.6737 24.1971 18.6835 24.1994L19.7746 24.4587C19.7843 24.4614 19.7941 24.4638 19.8039 24.466L20.9097 24.6715C20.9186 24.6725 20.9276 24.6733 20.9366 24.6739L22.0472 24.833C22.057 24.8348 22.0668 24.8365 22.0766 24.8379L23.1946 24.943C23.2044 24.9441 23.2141 24.9449 23.2239 24.9455L24.3444 24.9993C24.4291 25.0033 24.5137 24.99 24.5931 24.9603C24.6725 24.9306 24.745 24.8851 24.8063 24.8266C24.8676 24.768 24.9164 24.6976 24.9497 24.6197C24.983 24.5417 25.0001 24.4578 25 24.373V16.8676C24.9997 16.7085 24.9388 16.5555 24.8298 16.4396C24.7207 16.3238 24.5717 16.2538 24.4129 16.2438L23.542 16.1875L22.6906 16.0872L21.8442 15.9453L21.01 15.7594L20.188 15.5246L19.3758 15.2506L18.5661 14.9252C18.4522 14.8799 18.3276 14.8689 18.2076 14.8937C18.0876 14.9185 17.9774 14.9779 17.8909 15.0647L15.4078 17.5477L14.9748 17.3104L14.1651 16.8187L13.3823 16.2878L12.6239 15.7178L11.8949 15.1136L11.1928 14.4775L10.5225 13.8072L9.88641 13.1051L9.28216 12.3761L8.71216 11.6177L8.1813 10.8325L7.68714 10.0252L7.44984 9.59461L9.93534 7.10911C10.0221 7.02255 10.0815 6.91244 10.1063 6.79243C10.1311 6.67241 10.1201 6.54776 10.0748 6.43392L9.74942 5.62417L9.47542 4.81198L9.24057 3.98756L9.05465 3.1558L8.91276 2.30936L8.81246 1.45803L8.75619 0.587126C8.74624 0.428332 8.67622 0.279281 8.56036 0.170235C8.4445 0.0611902 8.29148 0.000325683 8.13237 3.09676e-07H0.626953ZM1.28258 1.25253H7.54525L7.56482 1.55344C7.56532 1.56487 7.56614 1.57629 7.56727 1.58769L7.67001 2.47082C7.67137 2.48146 7.673 2.49207 7.67491 2.50262L7.82413 3.38086C7.82549 3.39151 7.82712 3.40211 7.82903 3.41267L8.02229 4.27868C8.02522 4.29018 8.02849 4.30161 8.03207 4.31293L8.27671 5.16915C8.27892 5.17899 8.28137 5.18878 8.28405 5.19851L8.56783 6.04005C8.57161 6.05076 8.57569 6.06137 8.58006 6.07186L8.75864 6.51465L6.234 9.03929C6.13804 9.13493 6.07567 9.25911 6.05626 9.3932C6.03686 9.52729 6.06145 9.66405 6.12636 9.78298L6.59362 10.6392C6.59909 10.6483 6.6048 10.6573 6.61074 10.6661L7.12203 11.5003C7.12677 11.5078 7.13166 11.5151 7.13671 11.5223L7.68469 12.3321C7.69017 12.3412 7.69588 12.3502 7.70182 12.359L8.28894 13.1394C8.29448 13.1468 8.30019 13.1542 8.30607 13.1614L8.92744 13.9149C8.9346 13.9224 8.94194 13.9297 8.94946 13.9369L9.60753 14.661C9.61388 14.6685 9.6204 14.6758 9.6271 14.683L10.317 15.3729C10.3242 15.3796 10.3315 15.3861 10.339 15.3925L11.0631 16.0505C11.0703 16.0581 11.0776 16.0654 11.0851 16.0726L11.8386 16.6939C11.8458 16.6998 11.8532 16.7055 11.8606 16.7111L12.641 17.2982C12.6498 17.3041 12.6588 17.3098 12.6679 17.3153L13.4777 17.8633C13.4857 17.8692 13.4938 17.8749 13.5021 17.8804L14.3363 18.3893C14.3444 18.3935 14.3526 18.3976 14.3608 18.4015L15.217 18.8712C15.3357 18.9364 15.4723 18.9614 15.6064 18.9424C15.7405 18.9235 15.8648 18.8616 15.9607 18.766L18.4854 16.2414L18.9281 16.4199C18.9386 16.4243 18.9492 16.4284 18.9599 16.4322L19.8015 16.716C19.8104 16.7186 19.8194 16.721 19.8284 16.7233L20.6822 16.9679C20.6943 16.9716 20.7065 16.9748 20.7189 16.9777L21.5873 17.171C21.5979 17.1729 21.6085 17.1745 21.6191 17.1759L22.4974 17.3251C22.5079 17.327 22.5185 17.3286 22.5292 17.33L23.4123 17.4327C23.4237 17.4339 23.4351 17.4347 23.4466 17.4352L23.7475 17.4548V23.7174L23.2973 23.6954L22.2087 23.5927L21.1274 23.4361L20.0486 23.2355L18.9869 22.9835L17.9349 22.6826L16.8977 22.3303L15.88 21.9365L14.8819 21.4912L13.9009 21.002L12.9444 20.4711L12.0172 19.8962L11.1169 19.2748L10.2436 18.6168L9.40203 17.9171L8.59229 17.1808L7.81924 16.4077L7.08289 15.598L6.38323 14.7564L5.72271 13.8831L5.10378 12.9828L4.52889 12.0532L3.99803 11.0991L3.50876 10.1181L3.06352 9.12002L2.66966 8.10233L2.31738 7.06508L2.01648 6.01314L1.76451 4.95143L1.56391 3.87258L1.40734 2.79129L1.30459 1.70266L1.28258 1.25253Z" fill="#2196F3"/>
</svg>
