<svg width="30" height="30" viewBox="0 0 30 30" fill="none" xmlns="http://www.w3.org/2000/svg">
<path d="M28.7109 8.43749C28.7097 7.90949 28.4994 7.40347 28.1261 7.03016C27.7527 6.6568 27.2467 6.44652 26.7188 6.4453H19.7672C19.6212 5.28388 19.0563 4.21574 18.1785 3.44137C17.3008 2.66701 16.1705 2.23972 15 2.23972C13.8295 2.23972 12.6992 2.66701 11.8215 3.44137C10.9437 4.21574 10.3788 5.28388 10.2328 6.4453H3.28125C2.75327 6.44652 2.24727 6.6568 1.87393 7.03016C1.50059 7.40347 1.2903 7.90949 1.28906 8.43749V9.51093C1.29064 10.7354 1.61393 11.9381 2.22656 12.9984V25.7812C2.2278 26.3092 2.43809 26.8152 2.81143 27.1885C3.18477 27.5619 3.69077 27.7722 4.21875 27.7734H25.7812C26.3092 27.7722 26.8152 27.5619 27.1886 27.1885C27.5619 26.8152 27.7722 26.3092 27.7734 25.7812V12.9984C28.386 11.9381 28.7093 10.7354 28.7109 9.51093V8.43749ZM15 3.3984C15.8612 3.39935 16.6941 3.70624 17.35 4.26431C18.006 4.8224 18.4424 5.59532 18.5812 6.4453H11.4188C11.5576 5.59532 11.994 4.8224 12.65 4.26431C13.3059 3.70624 14.1388 3.39935 15 3.3984ZM2.46094 8.43749C2.46217 8.22027 2.54899 8.01233 2.70256 7.85877C2.85614 7.70521 3.06407 7.6184 3.28125 7.61718H26.7188C26.9359 7.6184 27.1439 7.70521 27.2974 7.85877C27.451 8.01233 27.5378 8.22027 27.5391 8.43749V9.51093C27.5378 11.0595 26.9221 12.5444 25.827 13.6395C24.732 14.7345 23.2471 15.3503 21.6984 15.3516H8.30156C6.75291 15.3503 5.26805 14.7345 4.17299 13.6395C3.07793 12.5444 2.46218 11.0595 2.46094 9.51093V8.43749ZM13.7109 16.5234H16.2891V18.75C16.2891 19.0919 16.1533 19.4197 15.9115 19.6615C15.6698 19.9032 15.3419 20.0391 15 20.0391C14.6581 20.0391 14.3302 19.9032 14.0885 19.6615C13.8467 19.4197 13.7109 19.0919 13.7109 18.75V16.5234ZM25.7812 26.6016H4.21875C4.00157 26.6003 3.79364 26.5135 3.64006 26.3599C3.48649 26.2064 3.39967 25.9984 3.39844 25.7812V14.5312C4.70489 15.8201 6.46636 16.5425 8.30156 16.5422H12.5203V18.75C12.5203 19.4026 12.7796 20.0286 13.2411 20.4901C13.7026 20.9516 14.3286 21.2109 14.9812 21.2109C15.6339 21.2109 16.2599 20.9516 16.7214 20.4901C17.1829 20.0286 17.4422 19.4026 17.4422 18.75V16.5234H21.6609C23.5064 16.5387 25.2828 15.8224 26.6016 14.5312V25.7812C26.6003 25.9984 26.5135 26.2064 26.3599 26.3599C26.2064 26.5135 25.9984 26.6003 25.7812 26.6016Z" fill="white"/>
</svg>
