<svg width="34" height="34" viewBox="0 0 34 34" fill="none" xmlns="http://www.w3.org/2000/svg">
<g clip-path="url(#clip0_121_464)">
<path d="M8.74367 13.8663H16.32C16.4703 13.8663 16.6144 13.8066 16.7207 13.7004C16.827 13.5941 16.8867 13.45 16.8867 13.2997C16.8867 13.1494 16.827 13.0052 16.7207 12.899C16.6144 12.7927 16.4703 12.733 16.32 12.733H8.74367C8.59338 12.733 8.44924 12.7927 8.34297 12.899C8.2367 13.0052 8.177 13.1494 8.177 13.2997C8.177 13.45 8.2367 13.5941 8.34297 13.7004C8.44924 13.8066 8.59338 13.8663 8.74367 13.8663Z" fill="#FBFBFB"/>
<path d="M8.74367 17.714H16.32C16.4703 17.714 16.6144 17.6543 16.7207 17.548C16.827 17.4417 16.8867 17.2976 16.8867 17.1473C16.8867 16.997 16.827 16.8529 16.7207 16.7466C16.6144 16.6404 16.4703 16.5807 16.32 16.5807H8.74367C8.59338 16.5807 8.44924 16.6404 8.34297 16.7466C8.2367 16.8529 8.177 16.997 8.177 17.1473C8.177 17.2976 8.2367 17.4417 8.34297 17.548C8.44924 17.6543 8.59338 17.714 8.74367 17.714Z" fill="#FBFBFB"/>
<path d="M31.943 11.866C32.3384 11.1835 32.4774 10.3823 32.3351 9.60641C32.1928 8.83054 31.7785 8.13084 31.1666 7.63301C31.3662 7.02047 31.3325 6.35578 31.0718 5.76663C30.8111 5.17748 30.3419 4.70544 29.7544 4.44118C29.1668 4.17693 28.5024 4.1391 27.8886 4.33497C27.2749 4.53084 26.7552 4.94659 26.4293 5.50234L26.0383 6.17101C25.9135 6.12266 25.7757 6.12004 25.6491 6.1636C25.5226 6.20716 25.4156 6.2941 25.347 6.40901L24.327 8.16001H4.65231C4.24699 8.1615 3.8587 8.32318 3.57209 8.60979C3.28548 8.89639 3.12381 9.28469 3.12231 9.69001V24.6047C3.12381 25.01 3.28548 25.3983 3.57209 25.6849C3.8587 25.9715 4.24699 26.1332 4.65231 26.1347H12.4666V28.5713C12.4663 28.6712 12.4922 28.7694 12.542 28.856C12.5918 28.9425 12.6635 29.0144 12.75 29.0643C12.8363 29.1133 12.934 29.1387 13.0333 29.138C13.1307 29.1377 13.2263 29.1123 13.311 29.0643L18.513 26.1347H26.7806C27.1864 26.1347 27.5756 25.9735 27.8625 25.6866C28.1495 25.3996 28.3106 25.0105 28.3106 24.6047V13.6283L30.6963 9.49734C30.7603 9.38064 30.7812 9.24514 30.7553 9.11459C30.7294 8.98404 30.6583 8.86677 30.5546 8.78334L30.6113 8.67568C30.9511 9.01301 31.1697 9.45321 31.2333 9.92775C31.2968 10.4023 31.2017 10.8845 30.9626 11.2993L29.2003 14.348C28.9497 14.7824 28.8817 15.2986 29.0113 15.7831C29.1409 16.2676 29.4576 16.6808 29.8916 16.932C30.0212 16.9998 30.1718 17.0148 30.3122 16.9741C30.4526 16.9334 30.5718 16.84 30.6449 16.7135C30.7181 16.5869 30.7395 16.437 30.7047 16.2951C30.6699 16.1531 30.5817 16.0301 30.4583 15.9517C30.284 15.8509 30.1569 15.6851 30.1048 15.4907C30.0527 15.2962 30.08 15.089 30.1806 14.9147L31.943 11.866ZM27.2 24.6047C27.2 24.6568 27.1897 24.7083 27.1698 24.7565C27.1499 24.8046 27.1206 24.8483 27.0838 24.8852C27.047 24.922 27.0032 24.9512 26.9551 24.9711C26.907 24.9911 26.8554 25.0013 26.8033 25.0013H18.3826C18.2853 25.0016 18.1897 25.027 18.105 25.075L13.6 27.6023V25.568C13.6 25.4177 13.5403 25.2736 13.434 25.1673C13.3277 25.061 13.1836 25.0013 13.0333 25.0013H4.65231C4.54757 24.9999 4.44752 24.9576 4.37345 24.8835C4.29937 24.8095 4.25711 24.7094 4.25565 24.6047V9.69001C4.25711 9.58526 4.29937 9.48522 4.37345 9.41115C4.44752 9.33707 4.54757 9.29481 4.65231 9.29334H23.6696L19.1363 17.1077C19.0685 17.2322 19.0464 17.3766 19.074 17.5157L19.7483 20.4283H8.74365C8.59336 20.4283 8.44922 20.488 8.34295 20.5943C8.23668 20.7006 8.17698 20.8447 8.17698 20.995C8.17698 21.1453 8.23668 21.2894 8.34295 21.3957C8.44922 21.502 8.59336 21.5617 8.74365 21.5617H20.468H20.5416C20.5775 21.5645 20.6135 21.5645 20.6493 21.5617L24.191 20.4793C24.3268 20.4378 24.4421 20.3468 24.514 20.2243L27.2 15.589V24.6047ZM20.8986 20.2753L20.4963 18.53L22.6156 19.754L20.8986 20.2753ZM23.817 19.142L20.417 17.1813L26.0666 7.46301L29.4666 9.42368L23.817 19.142ZM29.9596 7.54801L29.58 8.19968L27.0186 6.72068L27.3983 6.06901C27.4938 5.8978 27.6225 5.7473 27.7767 5.62625C27.9309 5.50519 28.1077 5.41601 28.2967 5.36389C28.4857 5.31177 28.6831 5.29774 28.8776 5.32263C29.0721 5.34752 29.2597 5.41082 29.4294 5.50886C29.5992 5.6069 29.7478 5.73772 29.8666 5.8937C29.9854 6.04969 30.0719 6.22773 30.1213 6.41748C30.1706 6.60723 30.1817 6.80489 30.154 6.99898C30.1262 7.19306 30.0602 7.37969 29.9596 7.54801Z" fill="#FBFBFB"/>
</g>
<defs>
<clipPath id="clip0_121_464">
<rect width="34" height="34" fill="white"/>
</clipPath>
</defs>
</svg>
