<svg width="69" height="69" viewBox="0 0 69 69" fill="none" xmlns="http://www.w3.org/2000/svg">
<path d="M66.8067 50.6763L65.0587 50.341C64.2391 50.1836 63.5939 49.6473 63.2889 48.869C62.9826 48.0918 63.0916 47.2602 63.5854 46.5871L64.6834 45.0909C65.0369 44.6091 64.986 43.9409 64.5623 43.5184L62.1909 41.1482C61.7806 40.7391 61.1353 40.6773 60.656 41.0017L59.1828 41.9992C58.4928 42.4701 57.6551 42.5452 56.8888 42.2111C56.1238 41.8782 55.6117 41.2124 55.4846 40.3856L55.2026 38.5516C55.113 37.9621 54.6046 37.5263 54.0078 37.5263H50.6546C50.0748 37.5263 49.5748 37.9391 49.4659 38.5093L49.0325 40.7669C48.8788 41.5683 48.357 42.2074 47.6029 42.5197C46.8463 42.8357 46.028 42.7485 45.3513 42.291L43.4483 41.003C42.9678 40.6785 42.3238 40.7403 41.9134 41.1494L39.542 43.5196C39.1183 43.9421 39.0674 44.6091 39.4209 45.0921L40.5189 46.5883C41.0128 47.2614 41.1217 48.093 40.8154 48.8702C40.5104 49.6485 39.8652 50.1848 39.0457 50.3422L37.2977 50.6775C36.7287 50.7864 36.3159 51.2852 36.3159 51.8662V55.2194C36.3159 55.8162 36.7517 56.3246 37.3424 56.4154L39.1764 56.6974C40.0032 56.8245 40.6678 57.3366 41.0019 58.1016C41.336 58.8679 41.2585 59.7032 40.79 60.3956L39.7926 61.8688C39.4669 62.3482 39.5287 62.9934 39.939 63.4037L42.3092 65.7752C42.7305 66.1976 43.3975 66.2473 43.8817 65.8962L45.3779 64.7983C46.0498 64.3044 46.8838 64.1966 47.6598 64.5017C48.4381 64.8067 48.9744 65.452 49.1318 66.2715L49.4671 68.0195C49.576 68.5872 50.0748 69 50.6558 69H54.009C54.6058 69 55.1142 68.5642 55.205 67.9735L55.4035 66.6843C55.5306 65.8514 56.0717 65.1638 56.8477 64.8418C57.6272 64.5198 58.4952 64.6252 59.1731 65.1227L60.225 65.895C60.7092 66.2497 61.3762 66.1976 61.7975 65.774L64.1677 63.4025C64.5781 62.9922 64.6398 62.3482 64.3142 61.8676L63.3167 60.3944C62.8482 59.7032 62.7708 58.8667 63.1049 58.1004C63.4378 57.3354 64.1035 56.8233 64.9303 56.6962L66.7643 56.4142C67.3538 56.3234 67.7896 55.815 67.7896 55.2182V51.865C67.7896 51.2852 67.3768 50.7864 66.8067 50.6763ZM65.3685 54.1807L64.5611 54.3054C62.9221 54.5572 61.5481 55.6152 60.886 57.1344C60.2226 58.6549 60.3824 60.3811 61.3121 61.7526L61.7491 62.3978L60.8194 63.3275L60.6051 63.1701C59.2372 62.169 57.488 61.9572 55.9216 62.6048C54.3552 63.2536 53.2681 64.6409 53.0103 66.3151L52.9703 66.579H51.6557L51.5092 65.8127C51.1957 64.1833 50.0869 62.8505 48.5447 62.2453C47.0012 61.6424 45.2823 61.8652 43.9447 62.8433L43.2861 63.3263L42.3564 62.3966L42.7934 61.7514C43.7231 60.3786 43.8817 58.6524 43.2195 57.1332C42.5574 55.614 41.1822 54.556 39.5444 54.3042L38.737 54.1807V52.8661L39.5032 52.7196C41.1326 52.4061 42.4654 51.2973 43.0707 49.7551C43.6759 48.2116 43.452 46.4927 42.4727 45.1551L41.9897 44.4965L42.9193 43.5668L43.9955 44.2956C45.3356 45.2059 47.0339 45.3766 48.5313 44.7568C50.0288 44.1358 51.1061 42.8151 51.4124 41.2233L51.6557 39.9474H52.9703L53.095 40.7548C53.3468 42.3938 54.4048 43.7678 55.924 44.43C57.4444 45.0921 59.1707 44.9335 60.5422 44.0038L61.1874 43.5668L62.1171 44.4965L61.6341 45.1551C60.6536 46.4915 60.4308 48.2104 61.0361 49.7551C61.6413 51.2973 62.9753 52.4061 64.6035 52.7196L65.3685 52.8661V54.1807Z" fill="white"/>
<path d="M52.0526 47.2105C48.7152 47.2105 46 49.9257 46 53.2632C46 56.6006 48.7152 59.3158 52.0526 59.3158C55.3901 59.3158 58.1053 56.6006 58.1053 53.2632C58.1053 49.9257 55.3901 47.2105 52.0526 47.2105ZM52.0526 56.8947C50.0504 56.8947 48.4211 55.2654 48.4211 53.2632C48.4211 51.2609 50.0504 49.6316 52.0526 49.6316C54.0548 49.6316 55.6842 51.2609 55.6842 53.2632C55.6842 55.2654 54.0548 56.8947 52.0526 56.8947Z" fill="white"/>
<path d="M31.4736 49.6316C30.4725 49.6316 29.492 49.6122 28.5296 49.5783C27.9413 49.5565 27.3736 49.519 26.7998 49.4851C26.4451 49.4645 26.0795 49.4512 25.7309 49.4258C24.9682 49.3713 24.2274 49.2999 23.495 49.2236C23.357 49.2091 23.213 49.1994 23.0762 49.1849C22.2373 49.0929 21.4202 48.9876 20.6237 48.8714C20.6031 48.8689 20.5825 48.8665 20.5619 48.8629C16.4643 48.2576 12.9477 47.334 10.1986 46.2373C10.1841 46.2324 10.1696 46.2264 10.155 46.2203C9.64782 46.0169 9.17208 45.8063 8.71934 45.592C8.66729 45.5666 8.61161 45.5424 8.55955 45.517C8.15282 45.3209 7.77634 45.1199 7.41561 44.9154C7.33087 44.8669 7.24129 44.8197 7.15898 44.7701C6.84545 44.5861 6.55976 44.3985 6.28619 44.2096C6.18208 44.137 6.07434 44.0644 5.97508 43.9917C5.74387 43.821 5.53687 43.6492 5.33834 43.4761C5.23061 43.3804 5.12287 43.286 5.02361 43.1904C4.8614 43.033 4.71855 42.8744 4.58419 42.7158C4.48976 42.6045 4.39898 42.4919 4.31908 42.3805C4.21255 42.2316 4.12176 42.0827 4.04066 41.9338C3.97529 41.814 3.91719 41.6942 3.86755 41.5743C3.80824 41.4278 3.76103 41.2814 3.72713 41.1361C3.68113 40.9436 3.6315 40.7475 3.6315 40.5526V30.6178C3.6654 30.6493 3.70776 30.6796 3.74287 30.7111C4.00798 30.9423 4.2755 31.1735 4.57813 31.3962C9.13819 34.8462 18.2571 37.5263 31.4736 37.5263C44.6357 37.5263 53.7303 34.868 58.3098 31.4398C58.6753 31.1735 59.0046 30.8987 59.3145 30.6191L59.3157 35.1053C59.3157 35.7747 59.8568 36.3158 60.5262 36.3158C61.1957 36.3158 61.7368 35.7747 61.7368 35.1053V26.6316V26.0263V11.5V10.8947C61.7368 10.6744 61.6617 10.4795 61.56 10.3016C60.1582 5.10842 49.7247 0 31.4736 0C13.2225 0 2.78776 5.10842 1.38719 10.3016C1.2855 10.4795 1.21045 10.6744 1.21045 10.8947V11.5V26.0263V26.6316V40.5526V41.1579V55.6842C1.21045 55.8791 1.26129 56.0631 1.34966 56.2265C2.72845 62.077 14.2914 65.5234 25.3302 66.3514C25.3604 66.3538 25.3919 66.355 25.4222 66.355C26.0504 66.355 26.5807 65.872 26.6279 65.2353C26.6775 64.5683 26.1788 63.9872 25.5118 63.9376C12.058 62.928 4.2174 58.8316 3.67024 55.4881C3.66055 55.4336 3.64845 55.3816 3.6315 55.3295V45.1442C3.6654 45.1756 3.70776 45.2059 3.74287 45.2374C4.00798 45.4686 4.2755 45.6998 4.57813 45.9225C9.13819 49.3725 18.2571 52.0526 31.4736 52.0526C32.143 52.0526 32.6841 51.5115 32.6841 50.8421C32.6841 50.1727 32.143 49.6316 31.4736 49.6316ZM4.35903 16.7016C4.72219 16.9873 5.1144 17.2694 5.53929 17.5442C5.62766 17.6011 5.72692 17.6567 5.81892 17.7136C6.17482 17.9352 6.55129 18.1518 6.94713 18.3649C7.09361 18.4436 7.24008 18.5211 7.39261 18.5985C7.83445 18.8237 8.29808 19.0416 8.78592 19.2546C8.86582 19.2897 8.93845 19.3261 9.01834 19.3599C9.58608 19.6008 10.1889 19.8308 10.8172 20.0524C10.9903 20.1141 11.1719 20.1722 11.3498 20.2327C11.8486 20.401 12.3642 20.562 12.8981 20.7182C13.0906 20.7738 13.2794 20.8319 13.4767 20.8864C14.1849 21.0825 14.916 21.2689 15.6835 21.4408C15.7888 21.4651 15.9026 21.4856 16.0091 21.5086C16.6858 21.6563 17.3879 21.7931 18.1094 21.9202C18.3539 21.9638 18.6021 22.0049 18.8514 22.0461C19.5378 22.1587 20.2448 22.2628 20.9699 22.3572C21.1563 22.3814 21.3354 22.4081 21.5231 22.4323C22.4237 22.5412 23.3546 22.6344 24.3133 22.7143C24.5494 22.7337 24.7951 22.7482 25.0348 22.7652C25.8011 22.8208 26.5843 22.8668 27.3857 22.9032C27.6774 22.9165 27.9679 22.9298 28.2657 22.9395C29.3092 22.9746 30.372 23 31.4736 23C32.5752 23 33.638 22.9746 34.6815 22.9395C34.9781 22.9298 35.2686 22.9153 35.5616 22.9032C36.3629 22.8668 37.1461 22.8208 37.9124 22.7652C38.1521 22.747 38.3978 22.7337 38.6339 22.7143C39.5914 22.6356 40.5235 22.5412 41.4241 22.4323C41.613 22.4093 41.7909 22.3814 41.9773 22.3572C42.7024 22.2628 43.4082 22.1587 44.0958 22.0461C44.3451 22.0049 44.5933 21.9638 44.8378 21.9202C45.5593 21.7931 46.2614 21.6563 46.9381 21.5086C47.0446 21.4856 47.1584 21.4651 47.2637 21.4408C48.0312 21.2689 48.7623 21.0825 49.4705 20.8864C49.6678 20.8319 49.8567 20.7751 50.0491 20.7182C50.583 20.5632 51.0987 20.401 51.5974 20.2327C51.7753 20.1722 51.9569 20.1141 52.13 20.0524C52.7571 19.8296 53.3611 19.5996 53.9289 19.3599C54.01 19.3261 54.0826 19.2885 54.1613 19.2546C54.6491 19.0416 55.1128 18.8237 55.5546 18.5985C55.7059 18.5211 55.8536 18.4436 56.0001 18.3649C56.3959 18.1531 56.7724 17.9364 57.1283 17.7136C57.2203 17.6567 57.3195 17.6011 57.4079 17.5442C57.8328 17.2694 58.225 16.9885 58.5882 16.7016C58.679 16.629 58.7601 16.5564 58.8472 16.4837C59.0046 16.353 59.1704 16.2235 59.3157 16.0915V26.0263C59.3157 26.2212 59.2661 26.4173 59.2201 26.6134C59.1862 26.7599 59.139 26.9052 59.0797 27.0516C59.0312 27.1715 58.9719 27.2913 58.9065 27.4112C58.8254 27.56 58.7347 27.7089 58.6281 27.8578C58.5482 27.9692 58.4574 28.0818 58.363 28.1932C58.2287 28.3517 58.0858 28.5103 57.9236 28.6677C57.8256 28.7633 57.7178 28.8577 57.6089 28.9534C57.4103 29.1265 57.2033 29.2984 56.9721 29.469C56.8729 29.5429 56.7663 29.6143 56.661 29.6869C56.3874 29.8758 56.1018 30.0634 55.7882 30.2474C55.7059 30.2971 55.6175 30.3443 55.5316 30.3927C55.1721 30.5961 54.7944 30.797 54.3877 30.9943C54.3356 31.0197 54.2811 31.0439 54.2279 31.0694C53.7739 31.2836 53.2994 31.4943 52.7922 31.6976C52.7777 31.7037 52.7631 31.7085 52.7486 31.7146C49.9995 32.8125 46.4829 33.7362 42.3853 34.3402C42.3647 34.3426 42.3441 34.3451 42.3236 34.3487C41.527 34.4661 40.7099 34.5714 39.871 34.6622C39.7342 34.6767 39.5902 34.6864 39.4522 34.7009C38.7198 34.7772 37.9778 34.8474 37.2163 34.9031C36.8677 34.9285 36.5021 34.9418 36.1474 34.9624C35.5737 34.9963 35.0059 35.0338 34.4176 35.0556C33.4552 35.0859 32.4747 35.1053 31.4736 35.1053C30.4725 35.1053 29.492 35.0859 28.5296 35.052C27.9413 35.0302 27.3736 34.9927 26.7998 34.9588C26.4451 34.9382 26.0795 34.9249 25.7309 34.8995C24.9682 34.845 24.2274 34.7736 23.495 34.6973C23.357 34.6828 23.213 34.6731 23.0762 34.6586C22.2373 34.5666 21.4202 34.4613 20.6237 34.3451C20.6031 34.3426 20.5825 34.3402 20.5619 34.3366C16.4643 33.7313 12.9477 32.8077 10.1986 31.7109C10.1841 31.7061 10.1696 31.7 10.155 31.694C9.64782 31.4906 9.17208 31.28 8.71934 31.0657C8.66729 31.0403 8.61161 31.0161 8.55955 30.9907C8.15282 30.7946 7.77634 30.5936 7.41561 30.3891C7.33087 30.3406 7.24129 30.2934 7.15898 30.2438C6.84545 30.0598 6.55976 29.8722 6.28619 29.6833C6.18208 29.6107 6.07434 29.538 5.97508 29.4654C5.74387 29.2947 5.53687 29.1228 5.33834 28.9497C5.23061 28.8541 5.12287 28.7597 5.02361 28.6641C4.8614 28.5067 4.71855 28.3481 4.58419 28.1895C4.48976 28.0782 4.39898 27.9656 4.31908 27.8542C4.21255 27.7053 4.12176 27.5564 4.04066 27.4075C3.97529 27.2877 3.91719 27.1678 3.86755 27.048C3.80824 26.9015 3.76103 26.7551 3.72713 26.6098C3.68113 26.4173 3.6315 26.2212 3.6315 26.0263V16.0915C3.77676 16.2235 3.94261 16.353 4.09998 16.4837C4.18713 16.5564 4.26824 16.629 4.35903 16.7016ZM31.4736 2.42105C47.8823 2.42105 59.3157 7.20505 59.3157 11.5C59.3157 15.7949 47.8823 20.5789 31.4736 20.5789C15.0649 20.5789 3.6315 15.7949 3.6315 11.5C3.6315 7.20505 15.0649 2.42105 31.4736 2.42105Z" fill="white"/>
</svg>
