<svg width="70" height="70" viewBox="0 0 70 70" fill="none" xmlns="http://www.w3.org/2000/svg">
<path d="M63.4375 8.75H6.5625C2.93781 8.75 0 11.6878 0 15.3125V50.3125C0 53.9372 2.93781 56.875 6.5625 56.875H26.25V63.4375H22.9688C22.365 63.4375 21.875 63.9275 21.875 64.5312C21.875 65.135 22.365 65.625 22.9688 65.625H47.0312C47.635 65.625 48.125 65.135 48.125 64.5312C48.125 63.9275 47.635 63.4375 47.0312 63.4375H43.75V56.875H63.4375C67.0622 56.875 70 53.9372 70 50.3125V15.3125C70 11.6878 67.0622 8.75 63.4375 8.75ZM41.5625 63.4375H28.4375V56.875H41.5625V63.4375ZM67.8125 50.3125C67.8125 52.7297 65.8547 54.6875 63.4375 54.6875H6.5625C4.14531 54.6875 2.1875 52.7297 2.1875 50.3125V15.3125C2.1875 12.8953 4.14531 10.9375 6.5625 10.9375H63.4375C65.8547 10.9375 67.8125 12.8953 67.8125 15.3125V50.3125ZM56.4484 19.7531C54.7378 19.4162 53.2219 20.4094 52.7012 21.875H39.375V19.6875H30.625V21.875H17.2987C16.7781 20.4094 15.26 19.4162 13.5516 19.7531C12.2981 20.0003 11.2766 21.0044 11.0141 22.2556C10.5656 24.3797 12.1734 26.25 14.2188 26.25C15.645 26.25 16.8481 25.3334 17.2987 24.0625H30.625V24.5525C21.0263 26.5147 13.6828 34.7419 13.1556 44.7781C13.1228 45.4059 13.6216 45.9375 14.2516 45.9375C14.8269 45.9375 15.3103 45.4913 15.3387 44.9159C15.7959 36.0238 22.1944 28.7066 30.625 26.7838V28.4375H39.375V26.7816C47.8056 28.7066 54.2041 36.0237 54.6613 44.9137C54.6919 45.4912 55.1731 45.9375 55.7484 45.9375C56.3784 45.9375 56.8772 45.4059 56.8444 44.7781C56.3172 34.7419 48.9738 26.5147 39.375 24.5525V24.0625H52.7012C53.1541 25.3334 54.355 26.25 55.7812 26.25C57.8266 26.25 59.4344 24.3797 58.9881 22.2556C58.7234 21.0044 57.7019 20.0003 56.4484 19.7531ZM14.2188 24.0625C13.615 24.0625 13.125 23.5725 13.125 22.9688C13.125 22.365 13.615 21.875 14.2188 21.875C14.8225 21.875 15.3125 22.365 15.3125 22.9688C15.3125 23.5725 14.8225 24.0625 14.2188 24.0625ZM37.1875 26.25H32.8125V21.875H37.1875V26.25ZM55.7812 24.0625C55.1775 24.0625 54.6875 23.5725 54.6875 22.9688C54.6875 22.365 55.1775 21.875 55.7812 21.875C56.385 21.875 56.875 22.365 56.875 22.9688C56.875 23.5725 56.385 24.0625 55.7812 24.0625Z" fill="white"/>
</svg>
