<svg width="70" height="63" viewBox="0 0 70 63" fill="none" xmlns="http://www.w3.org/2000/svg">
<path d="M24.605 27.4446C24.2933 26.9212 23.6163 26.7496 23.0931 27.0615L10.2447 34.7143C9.91076 34.9131 9.70605 35.2731 9.70605 35.6618C9.70605 36.0504 9.91076 36.4104 10.2446 36.6093L23.093 44.2621C23.2699 44.3675 23.4643 44.4176 23.6563 44.4176C24.0322 44.4176 24.3987 44.2253 24.6049 43.879C24.9166 43.3556 24.745 42.6787 24.2218 42.3671L12.9643 35.6618L24.2218 28.9565C24.7452 28.6449 24.9168 27.9679 24.605 27.4446Z" fill="white"/>
<path d="M44.5131 43.879C44.7194 44.2254 45.0857 44.4176 45.4616 44.4176C45.6537 44.4176 45.8481 44.3675 46.025 44.2621L58.8734 36.6093C59.2073 36.4103 59.4119 36.0504 59.4119 35.6618C59.4119 35.2731 59.2072 34.9131 58.8734 34.7143L46.025 27.0615C45.5017 26.7497 44.8245 26.9212 44.5131 27.4446C44.2013 27.9679 44.3729 28.6449 44.8962 28.9565L56.1537 35.6618L44.8962 42.3671C44.3728 42.6787 44.2012 43.3556 44.5131 43.879Z" fill="white"/>
<path d="M38.7822 27.3941L28.5038 42.6997C28.1643 43.2053 28.2988 43.8906 28.8046 44.2303C28.9934 44.3571 29.2071 44.4176 29.4185 44.4176C29.7737 44.4176 30.1224 44.2463 30.3351 43.9294L40.6135 28.6238C40.9531 28.1182 40.8185 27.4329 40.3128 27.0932C39.8068 26.7537 39.1216 26.8885 38.7822 27.3941Z" fill="white"/>
<path d="M68.0147 0H1.10294C0.493676 0 0 0.493824 0 1.10294V61.3971C0 62.0062 0.493676 62.5 1.10294 62.5H68.0147C68.624 62.5 69.1176 62.0062 69.1176 61.3971V49.6324C69.1176 49.0232 68.624 48.5294 68.0147 48.5294C67.4054 48.5294 66.9118 49.0232 66.9118 49.6324V60.2941H2.20588V11.0294H66.9118V45.2206C66.9118 45.8297 67.4054 46.3235 68.0147 46.3235C68.624 46.3235 69.1176 45.8297 69.1176 45.2206V1.10294C69.1176 0.493824 68.624 0 68.0147 0ZM2.20588 2.20588H43.0147V8.82353H2.20588V2.20588ZM45.2206 8.82353V2.20588H66.9118V8.82353H45.2206Z" fill="white"/>
<path d="M56.1027 4.33824C55.4541 4.33824 54.9263 4.86604 54.9263 5.51471C54.9263 6.16339 55.4541 6.69118 56.1027 6.69118C56.7514 6.69118 57.2792 6.16339 57.2792 5.51471C57.2792 4.86604 56.7514 4.33824 56.1027 4.33824Z" fill="white"/>
<path d="M50.0734 4.33824C49.4248 4.33824 48.897 4.86604 48.897 5.51471C48.897 6.16339 49.4248 6.69118 50.0734 6.69118C50.7221 6.69118 51.2499 6.16339 51.2499 5.51471C51.2499 4.86604 50.7221 4.33824 50.0734 4.33824Z" fill="white"/>
<path d="M62.1325 4.33824C61.4838 4.33824 60.9561 4.86604 60.9561 5.51471C60.9561 6.16339 61.4838 6.69118 62.1325 6.69118C62.7812 6.69118 63.309 6.16339 63.309 5.51471C63.309 4.86604 62.7812 4.33824 62.1325 4.33824Z" fill="white"/>
</svg>
