<svg width="28" height="28" viewBox="0 0 28 28" fill="none" xmlns="http://www.w3.org/2000/svg">
<path d="M14.0001 0C6.2691 0 0 6.37478 0 14.2391C0 20.5305 4.01146 25.868 9.57411 27.7508C10.2738 27.8827 10.5307 27.4419 10.5307 27.0658C10.5307 26.7263 10.5177 25.6046 10.5117 24.4148C6.61683 25.2761 5.79496 22.7347 5.79496 22.7347C5.15812 21.0888 4.24051 20.6512 4.24051 20.6512C2.97028 19.7674 4.33626 19.7856 4.33626 19.7856C5.74211 19.8858 6.48236 21.2529 6.48236 21.2529C7.73103 23.4298 9.75751 22.8005 10.5564 22.4366C10.6821 21.5166 11.0449 20.8879 11.4453 20.5326C8.33567 20.1725 5.06678 18.9516 5.06678 13.4954C5.06678 11.9408 5.61368 10.6706 6.50924 9.67336C6.3639 9.31447 5.88467 7.86645 6.64489 5.90508C6.64489 5.90508 7.8205 5.52239 10.4959 7.36467C11.6127 7.0492 12.8103 6.89093 14.0001 6.88556C15.1899 6.89093 16.3885 7.0492 17.5073 7.36467C20.1795 5.52239 21.3535 5.90508 21.3535 5.90508C22.1155 7.86645 21.6361 9.31447 21.4907 9.67336C22.3884 10.6706 22.9316 11.9408 22.9316 13.4954C22.9316 18.9645 19.6565 20.1687 16.5389 20.5212C17.0411 20.9631 17.4886 21.8297 17.4886 23.1582C17.4886 25.0632 17.4723 26.5966 17.4723 27.0658C17.4723 27.4447 17.7243 27.8887 18.434 27.7489C23.9936 25.864 28 20.5283 28 14.2391C28 6.37478 21.7319 0 14.0001 0Z" fill="#2196F3"/>
</svg>
