<svg width="27" height="27" viewBox="0 0 27 27" fill="none" xmlns="http://www.w3.org/2000/svg">
<path d="M26 2.83824V24.1617C26 24.6492 25.8063 25.1169 25.4615 25.4616C25.1169 25.8064 24.6493 26 24.1618 26H2.83823C2.3507 26 1.88314 25.8064 1.5384 25.4616C1.19367 25.1169 1 24.6492 1 24.1617V2.83824C1 2.3507 1.19367 1.88314 1.5384 1.53841C1.88314 1.19368 2.3507 1 2.83823 1H24.1618C24.6493 1 25.1169 1.19368 25.4615 1.53841C25.8063 1.88314 26 2.3507 26 2.83824ZM8.35293 10.5588H4.67647V22.3235H8.35293V10.5588ZM8.68381 6.5147C8.68575 6.23661 8.63289 5.96086 8.52825 5.70319C8.42363 5.44552 8.26926 5.21099 8.07398 5.01299C7.8787 4.81498 7.64634 4.65736 7.39015 4.54916C7.13397 4.44096 6.85897 4.38428 6.58088 4.38235H6.51469C5.94917 4.38235 5.40679 4.60701 5.00689 5.0069C4.60701 5.4068 4.38235 5.94917 4.38235 6.5147C4.38235 7.08024 4.60701 7.62261 5.00689 8.02251C5.40679 8.4224 5.94917 8.64706 6.51469 8.64706C6.79282 8.6539 7.06955 8.60587 7.32909 8.50572C7.58864 8.40559 7.82591 8.25528 8.02735 8.0634C8.22879 7.87153 8.39045 7.64183 8.50309 7.38745C8.61573 7.13308 8.67714 6.859 8.68381 6.58089V6.5147ZM22.3235 15.1765C22.3235 11.6397 20.0735 10.2647 17.8383 10.2647C17.1064 10.2281 16.3776 10.3839 15.7248 10.7168C15.072 11.0496 14.5178 11.5479 14.1176 12.1618H14.0146V10.5588H10.5588V22.3235H14.2353V16.0661C14.1821 15.4254 14.384 14.7894 14.797 14.2965C15.21 13.8036 15.8009 13.4936 16.4411 13.4339H16.5809C17.75 13.4339 18.6176 14.1691 18.6176 16.022V22.3235H22.2941L22.3235 15.1765Z" stroke="#2196F3" stroke-width="1.25" stroke-linejoin="round"/>
</svg>
