<svg width="158" height="30" viewBox="0 0 158 30" fill="none" xmlns="http://www.w3.org/2000/svg">
<path d="M12.72 22.84C12.5 22.84 12.26 22.78 12 22.66C11.76 22.52 11.5 22.37 11.22 22.21L1.47 16.48C1.23 16.32 1.05 16.12 0.93 15.88C0.81 15.62 0.75 15.36 0.75 15.1C0.75 14.82 0.81 14.56 0.93 14.32C1.05 14.06 1.23 13.86 1.47 13.72L11.22 8.11C11.48 7.95 11.72 7.83 11.94 7.75C12.18 7.65 12.4 7.6 12.6 7.6C13 7.6 13.37 7.8 13.71 8.2C14.07 8.58 14.25 8.98 14.25 9.4C14.25 9.6 14.19 9.8 14.07 10C13.97 10.18 13.81 10.34 13.59 10.48L3.18 16.51L2.97 13.51L13.56 19.84C13.8 19.98 13.97 20.16 14.07 20.38C14.17 20.58 14.22 20.79 14.22 21.01C14.22 21.49 14.05 21.92 13.71 22.3C13.39 22.66 13.06 22.84 12.72 22.84ZM33.1699 25.3C31.7699 25.3 30.5099 25.13 29.3899 24.79C28.2699 24.43 27.1999 23.81 26.1799 22.93C25.9199 22.71 25.7199 22.46 25.5799 22.18C25.4399 21.9 25.3699 21.62 25.3699 21.34C25.3699 20.88 25.5299 20.48 25.8499 20.14C26.1899 19.78 26.6099 19.6 27.1099 19.6C27.4899 19.6 27.8299 19.72 28.1299 19.96C28.8899 20.58 29.6399 21.05 30.3799 21.37C31.1399 21.69 32.0699 21.85 33.1699 21.85C33.9099 21.85 34.5899 21.74 35.2099 21.52C35.8299 21.28 36.3299 20.97 36.7099 20.59C37.0899 20.19 37.2799 19.74 37.2799 19.24C37.2799 18.64 37.0999 18.13 36.7399 17.71C36.3799 17.29 35.8299 16.94 35.0899 16.66C34.3499 16.36 33.4099 16.13 32.2699 15.97C31.1899 15.81 30.2399 15.57 29.4199 15.25C28.5999 14.91 27.9099 14.49 27.3499 13.99C26.8099 13.47 26.3999 12.87 26.1199 12.19C25.8399 11.49 25.6999 10.71 25.6999 9.85C25.6999 8.55 26.0299 7.44 26.6899 6.52C27.3699 5.6 28.2799 4.9 29.4199 4.42C30.5599 3.94 31.8199 3.7 33.1999 3.7C34.4999 3.7 35.6999 3.9 36.7999 4.3C37.9199 4.68 38.8299 5.17 39.5299 5.77C40.1099 6.23 40.3999 6.76 40.3999 7.36C40.3999 7.8 40.2299 8.2 39.8899 8.56C39.5499 8.92 39.1499 9.1 38.6899 9.1C38.3899 9.1 38.1199 9.01 37.8799 8.83C37.5599 8.55 37.1299 8.29 36.5899 8.05C36.0499 7.79 35.4799 7.58 34.8799 7.42C34.2799 7.24 33.7199 7.15 33.1999 7.15C32.3399 7.15 31.6099 7.26 31.0099 7.48C30.4299 7.7 29.9899 8 29.6899 8.38C29.3899 8.76 29.2399 9.2 29.2399 9.7C29.2399 10.3 29.4099 10.8 29.7499 11.2C30.1099 11.58 30.6199 11.89 31.2799 12.13C31.9399 12.35 32.7299 12.55 33.6499 12.73C34.8499 12.95 35.8999 13.21 36.7999 13.51C37.7199 13.81 38.4799 14.2 39.0799 14.68C39.6799 15.14 40.1299 15.73 40.4299 16.45C40.7299 17.15 40.8799 18.01 40.8799 19.03C40.8799 20.33 40.5199 21.45 39.7999 22.39C39.0799 23.33 38.1299 24.05 36.9499 24.55C35.7899 25.05 34.5299 25.3 33.1699 25.3ZM57.1603 8.65C57.6803 8.65 58.1103 8.82 58.4503 9.16C58.7903 9.5 58.9603 9.94 58.9603 10.48V23.17C58.9603 23.69 58.7903 24.13 58.4503 24.49C58.1103 24.83 57.6803 25 57.1603 25C56.6403 25 56.2103 24.83 55.8703 24.49C55.5303 24.13 55.3603 23.69 55.3603 23.17V21.7L56.0203 21.97C56.0203 22.23 55.8803 22.55 55.6003 22.93C55.3203 23.29 54.9403 23.65 54.4603 24.01C53.9803 24.37 53.4103 24.68 52.7503 24.94C52.1103 25.18 51.4103 25.3 50.6503 25.3C49.2703 25.3 48.0203 24.95 46.9003 24.25C45.7803 23.53 44.8903 22.55 44.2303 21.31C43.5903 20.05 43.2703 18.61 43.2703 16.99C43.2703 15.35 43.5903 13.91 44.2303 12.67C44.8903 11.41 45.7703 10.43 46.8703 9.73C47.9703 9.01 49.1903 8.65 50.5303 8.65C51.3903 8.65 52.1803 8.78 52.9003 9.04C53.6203 9.3 54.2403 9.63 54.7603 10.03C55.3003 10.43 55.7103 10.84 55.9903 11.26C56.2903 11.66 56.4403 12 56.4403 12.28L55.3603 12.67V10.48C55.3603 9.96 55.5303 9.53 55.8703 9.19C56.2103 8.83 56.6403 8.65 57.1603 8.65ZM51.1003 22C51.9803 22 52.7503 21.78 53.4103 21.34C54.0703 20.9 54.5803 20.3 54.9403 19.54C55.3203 18.78 55.5103 17.93 55.5103 16.99C55.5103 16.03 55.3203 15.17 54.9403 14.41C54.5803 13.65 54.0703 13.05 53.4103 12.61C52.7503 12.17 51.9803 11.95 51.1003 11.95C50.2403 11.95 49.4803 12.17 48.8203 12.61C48.1603 13.05 47.6403 13.65 47.2603 14.41C46.9003 15.17 46.7203 16.03 46.7203 16.99C46.7203 17.93 46.9003 18.78 47.2603 19.54C47.6403 20.3 48.1603 20.9 48.8203 21.34C49.4803 21.78 50.2403 22 51.1003 22ZM75.9982 2.8C76.5182 2.8 76.9482 2.97 77.2882 3.31C77.6282 3.65 77.7982 4.09 77.7982 4.63V23.17C77.7982 23.69 77.6282 24.13 77.2882 24.49C76.9482 24.83 76.5182 25 75.9982 25C75.4782 25 75.0482 24.83 74.7082 24.49C74.3682 24.13 74.1982 23.69 74.1982 23.17V21.7L74.8582 21.97C74.8582 22.23 74.7182 22.55 74.4382 22.93C74.1582 23.29 73.7782 23.65 73.2982 24.01C72.8182 24.37 72.2482 24.68 71.5882 24.94C70.9482 25.18 70.2482 25.3 69.4882 25.3C68.1082 25.3 66.8582 24.95 65.7382 24.25C64.6182 23.53 63.7282 22.55 63.0682 21.31C62.4282 20.05 62.1082 18.61 62.1082 16.99C62.1082 15.35 62.4282 13.91 63.0682 12.67C63.7282 11.41 64.6082 10.43 65.7082 9.73C66.8082 9.01 68.0282 8.65 69.3682 8.65C70.2282 8.65 71.0182 8.78 71.7382 9.04C72.4582 9.3 73.0782 9.63 73.5982 10.03C74.1382 10.43 74.5482 10.84 74.8282 11.26C75.1282 11.66 75.2782 12 75.2782 12.28L74.1982 12.67V4.63C74.1982 4.11 74.3682 3.68 74.7082 3.34C75.0482 2.98 75.4782 2.8 75.9982 2.8ZM69.9382 22C70.8182 22 71.5882 21.78 72.2482 21.34C72.9082 20.9 73.4182 20.3 73.7782 19.54C74.1582 18.78 74.3482 17.93 74.3482 16.99C74.3482 16.03 74.1582 15.17 73.7782 14.41C73.4182 13.65 72.9082 13.05 72.2482 12.61C71.5882 12.17 70.8182 11.95 69.9382 11.95C69.0782 11.95 68.3182 12.17 67.6582 12.61C66.9982 13.05 66.4782 13.65 66.0982 14.41C65.7382 15.17 65.5582 16.03 65.5582 16.99C65.5582 17.93 65.7382 18.78 66.0982 19.54C66.4782 20.3 66.9982 20.9 67.6582 21.34C68.3182 21.78 69.0782 22 69.9382 22ZM85.0861 23.17C85.0861 23.69 84.9161 24.13 84.5761 24.49C84.2361 24.83 83.8061 25 83.2861 25C82.7661 25 82.3361 24.83 81.9961 24.49C81.6561 24.13 81.4861 23.69 81.4861 23.17V10.78C81.4861 10.26 81.6561 9.83 81.9961 9.49C82.3361 9.13 82.7661 8.95 83.2861 8.95C83.8061 8.95 84.2361 9.13 84.5761 9.49C84.9161 9.83 85.0861 10.26 85.0861 10.78V23.17ZM83.2561 7C82.5761 7 82.0961 6.89 81.8161 6.67C81.5361 6.45 81.3961 6.06 81.3961 5.5V4.93C81.3961 4.35 81.5461 3.96 81.8461 3.76C82.1661 3.54 82.6461 3.43 83.2861 3.43C83.9861 3.43 84.4761 3.54 84.7561 3.76C85.0361 3.98 85.1761 4.37 85.1761 4.93V5.5C85.1761 6.08 85.0261 6.48 84.7261 6.7C84.4261 6.9 83.9361 7 83.2561 7ZM88.9659 9.25H96.0759C96.5559 9.25 96.9559 9.41 97.2759 9.73C97.5959 10.05 97.7559 10.45 97.7559 10.93C97.7559 11.39 97.5959 11.78 97.2759 12.1C96.9559 12.4 96.5559 12.55 96.0759 12.55H88.9659C88.4859 12.55 88.0859 12.39 87.7659 12.07C87.4459 11.75 87.2859 11.35 87.2859 10.87C87.2859 10.41 87.4459 10.03 87.7659 9.73C88.0859 9.41 88.4859 9.25 88.9659 9.25ZM92.1759 5.5C92.6959 5.5 93.1159 5.68 93.4359 6.04C93.7759 6.38 93.9459 6.81 93.9459 7.33V20.68C93.9459 20.96 93.9959 21.19 94.0959 21.37C94.2159 21.55 94.3659 21.68 94.5459 21.76C94.7459 21.84 94.9559 21.88 95.1759 21.88C95.4159 21.88 95.6359 21.84 95.8359 21.76C96.0359 21.66 96.2659 21.61 96.5259 21.61C96.8059 21.61 97.0559 21.74 97.2759 22C97.5159 22.26 97.6359 22.62 97.6359 23.08C97.6359 23.64 97.3259 24.1 96.7059 24.46C96.1059 24.82 95.4559 25 94.7559 25C94.3359 25 93.8659 24.97 93.3459 24.91C92.8459 24.83 92.3659 24.66 91.9059 24.4C91.4659 24.12 91.0959 23.7 90.7959 23.14C90.4959 22.58 90.3459 21.81 90.3459 20.83V7.33C90.3459 6.81 90.5159 6.38 90.8559 6.04C91.2159 5.68 91.6559 5.5 92.1759 5.5ZM109.491 8.65C110.931 8.65 112.021 8.96 112.761 9.58C113.521 10.2 114.041 11.03 114.321 12.07C114.601 13.09 114.741 14.23 114.741 15.49V23.17C114.741 23.69 114.571 24.13 114.231 24.49C113.891 24.83 113.461 25 112.941 25C112.421 25 111.991 24.83 111.651 24.49C111.311 24.13 111.141 23.69 111.141 23.17V15.49C111.141 14.83 111.061 14.24 110.901 13.72C110.741 13.18 110.451 12.75 110.031 12.43C109.611 12.11 109.011 11.95 108.231 11.95C107.471 11.95 106.821 12.11 106.281 12.43C105.741 12.75 105.331 13.18 105.051 13.72C104.791 14.24 104.661 14.83 104.661 15.49V23.17C104.661 23.69 104.491 24.13 104.151 24.49C103.811 24.83 103.381 25 102.861 25C102.341 25 101.911 24.83 101.571 24.49C101.231 24.13 101.061 23.69 101.061 23.17V4.63C101.061 4.11 101.231 3.68 101.571 3.34C101.911 2.98 102.341 2.8 102.861 2.8C103.381 2.8 103.811 2.98 104.151 3.34C104.491 3.68 104.661 4.11 104.661 4.63V12.07L104.211 11.98C104.391 11.64 104.641 11.28 104.961 10.9C105.281 10.5 105.671 10.13 106.131 9.79C106.591 9.45 107.101 9.18 107.661 8.98C108.221 8.76 108.831 8.65 109.491 8.65ZM127.618 29.02C127.278 29.02 126.928 28.88 126.568 28.6C126.208 28.32 126.028 27.96 126.028 27.52C126.028 27.28 126.088 27.04 126.208 26.8L138.388 1.87C138.528 1.59 138.718 1.37 138.958 1.21C139.198 1.05 139.448 0.969998 139.708 0.969998C140.048 0.969998 140.388 1.11 140.728 1.39C141.088 1.65 141.268 2.01 141.268 2.47C141.268 2.71 141.208 2.95 141.088 3.19L128.938 28.12C128.798 28.4 128.608 28.62 128.368 28.78C128.148 28.94 127.898 29.02 127.618 29.02ZM145.298 22.48C144.898 22.48 144.518 22.29 144.158 21.91C143.818 21.51 143.648 21.1 143.648 20.68C143.648 20.46 143.698 20.26 143.798 20.08C143.918 19.9 144.088 19.74 144.308 19.6L154.718 13.57L154.928 16.57L144.338 10.24C144.098 10.1 143.928 9.93 143.828 9.73C143.728 9.51 143.678 9.29 143.678 9.07C143.678 8.59 143.848 8.17 144.188 7.81C144.528 7.43 144.858 7.24 145.178 7.24C145.398 7.24 145.628 7.31 145.868 7.45C146.128 7.57 146.398 7.71 146.678 7.87L156.428 13.6C156.668 13.74 156.848 13.94 156.968 14.2C157.088 14.44 157.148 14.7 157.148 14.98C157.148 15.26 157.088 15.53 156.968 15.79C156.848 16.03 156.668 16.22 156.428 16.36L146.678 21.97C146.418 22.11 146.178 22.23 145.958 22.33C145.738 22.43 145.518 22.48 145.298 22.48Z" fill="#2F80ED"/>
</svg>
