<svg width="27" height="21" viewBox="0 0 27 21" fill="none" xmlns="http://www.w3.org/2000/svg">
<path d="M25.707 0.825H1.29297C1.02795 0.825 0.825 1.04617 0.825 1.30471V19.9261C0.825 20.1846 1.02796 20.4058 1.29297 20.4058H25.707C25.972 20.4058 26.175 20.1847 26.175 19.9261V1.30471C26.175 1.04615 25.972 0.825 25.707 0.825ZM25.239 2.42015V18.8242L16.713 10.6964L25.239 2.42015ZM13.1773 13.5023C13.1774 13.5024 13.1775 13.5025 13.1776 13.5026C13.3584 13.6794 13.6412 13.6801 13.8218 13.5024C13.822 13.5022 13.8222 13.502 13.8224 13.5018L16.0321 11.3568L24.5163 19.4463H2.48372L10.9679 11.3576L13.1773 13.5023ZM13.5 12.4943L2.46749 1.78443H24.5325L13.5 12.4943ZM1.76094 2.42016L10.287 10.6964L1.76094 18.825V2.42016Z" fill="#2196F3" stroke="#2196F3" stroke-width="0.35"/>
</svg>
