<svg width="25" height="42" viewBox="0 0 25 42" fill="none" xmlns="http://www.w3.org/2000/svg">
<path d="M16.1147 30.336L23.1 19.104C23.1229 19.0676 23.142 19.0294 23.1569 18.9898C24.3631 17.0228 25 14.7757 25 12.4816C25 5.59925 19.4008 0 12.5184 0C5.63605 0 0.0363402 5.59925 0.0363402 12.4816C0.0363402 14.7762 0.674165 17.0242 1.88132 18.9926C1.8953 19.0271 1.91161 19.0606 1.93118 19.0933L8.66583 30.364C3.43791 31.1029 0 33.2526 0 35.8602C0 39.0913 5.49069 41.6216 12.4998 41.6216C19.5088 41.6216 24.9995 39.0908 24.9995 35.8602C25 33.2405 21.4018 31.0428 16.1147 30.336ZM3.13601 18.3632C2.02249 16.5909 1.43406 14.5572 1.43406 12.4816C1.43406 6.36985 6.40619 1.39772 12.5184 1.39772C18.6301 1.39772 23.6023 6.36985 23.6023 12.4816C23.6023 14.5581 23.0138 16.5918 21.9008 18.3632C21.8775 18.4005 21.8584 18.4391 21.843 18.4792L14.4631 30.3444C14.3522 30.5145 14.3303 30.5531 14.1947 30.7758L12.3311 33.7725L3.19844 18.489C3.18213 18.4456 3.16117 18.4032 3.13601 18.3632ZM12.5002 40.2239C5.95753 40.2239 1.39818 37.9237 1.39818 35.8602C1.39818 33.9873 4.8319 32.2225 9.45042 31.6759L11.7194 35.4735C11.8447 35.6827 12.0693 35.8118 12.3129 35.8137C12.3148 35.8137 12.3171 35.8137 12.319 35.8137C12.5603 35.8137 12.7849 35.6888 12.9126 35.4838L15.298 31.6485C19.9901 32.1568 23.6018 33.9663 23.6018 35.8602C23.6023 37.9242 19.0429 40.2239 12.5002 40.2239Z" fill="#2196F3"/>
<path d="M17.0387 12.4816C17.0387 9.97924 15.0027 7.94324 12.5003 7.94324C9.99792 7.94324 7.96191 9.97924 7.96191 12.4816C7.96191 14.984 9.99792 17.02 12.5003 17.02C15.0027 17.02 17.0387 14.984 17.0387 12.4816ZM9.35963 12.4816C9.35963 10.7498 10.7685 9.34095 12.5003 9.34095C14.2321 9.34095 15.641 10.7498 15.641 12.4816C15.641 14.2134 14.2325 15.6223 12.5003 15.6223C10.7681 15.6223 9.35963 14.2134 9.35963 12.4816Z" fill="#2196F3"/>
</svg>
