<svg width="33" height="33" viewBox="0 0 33 33" fill="none" xmlns="http://www.w3.org/2000/svg">
<path d="M21.4027 0H3.57501V33H29.425V8.0223L21.4027 0ZM21.725 1.8777L27.5473 7.7H21.725V1.8777ZM4.67501 31.9V1.1H20.625V8.8H28.325V31.9H4.67501Z" fill="#2196F3"/>
<path d="M18.975 20.35C19.2786 20.35 19.525 20.1041 19.525 19.8C19.525 19.4959 19.2786 19.25 18.975 19.25H9.62501C9.32141 19.25 9.07501 19.4959 9.07501 19.8C9.07501 20.1041 9.32141 20.35 9.62501 20.35H18.975Z" fill="#2196F3"/>
<path d="M24.475 16.5H20.625C20.3214 16.5 20.075 16.7459 20.075 17.05C20.075 17.3541 20.3214 17.6 20.625 17.6H24.475C24.7786 17.6 25.025 17.3541 25.025 17.05C25.025 16.7459 24.7786 16.5 24.475 16.5Z" fill="#2196F3"/>
<path d="M11.825 17.05C11.825 17.3541 12.0714 17.6 12.375 17.6H17.875C18.1786 17.6 18.425 17.3541 18.425 17.05C18.425 16.7459 18.1786 16.5 17.875 16.5H12.375C12.0714 16.5 11.825 16.7459 11.825 17.05Z" fill="#2196F3"/>
<path d="M9.23451 16.6595C9.13551 16.7634 9.07501 16.9064 9.07501 17.05C9.07501 17.193 9.13551 17.336 9.23451 17.435C9.33351 17.5389 9.47651 17.6 9.62501 17.6C9.77351 17.6 9.91101 17.5395 10.0155 17.4405C10.1145 17.336 10.175 17.193 10.175 17.05C10.175 16.9064 10.1145 16.7634 10.0155 16.6595C9.81201 16.456 9.43251 16.4615 9.23451 16.6595Z" fill="#2196F3"/>
<path d="M21.3345 19.4095C21.2355 19.5134 21.175 19.6509 21.175 19.8C21.175 19.9485 21.23 20.086 21.3345 20.1905C21.439 20.2895 21.582 20.35 21.725 20.35C21.868 20.35 22.011 20.2895 22.1155 20.1905C22.22 20.086 22.275 19.9485 22.275 19.8C22.275 19.6564 22.2145 19.5134 22.1155 19.4095C21.9065 19.206 21.5435 19.206 21.3345 19.4095Z" fill="#2196F3"/>
<path d="M24.0845 19.4095C23.9855 19.5134 23.925 19.6509 23.925 19.8C23.925 19.9485 23.98 20.086 24.0845 20.1905C24.189 20.2895 24.332 20.35 24.475 20.35C24.618 20.35 24.761 20.2895 24.8655 20.185C24.97 20.0805 25.025 19.943 25.025 19.8C25.025 19.6564 24.9645 19.5134 24.8655 19.4095C24.6565 19.206 24.2935 19.206 24.0845 19.4095Z" fill="#2196F3"/>
<path d="M12.6638 22.0913C11.4593 22.7183 11.0539 23.9178 10.906 25.1614C10.6783 24.9705 10.4506 24.7802 10.2229 24.5894C9.68388 24.1378 8.90178 24.9117 9.44518 25.3676C9.95943 25.7983 10.4742 26.2295 10.9885 26.6607C11.3504 26.9637 11.9103 26.7723 11.9273 26.2718C11.9675 25.0805 12.0236 23.6637 13.2187 23.0417C13.8474 22.7144 13.2913 21.7646 12.6638 22.0913Z" fill="#2196F3"/>
<path d="M20.0502 24.2594C19.2483 24.2088 18.0746 25.4447 17.4564 24.3436C17.3134 24.0884 16.9543 23.9927 16.704 24.1461C15.9252 24.6241 14.9072 25.3116 14.0882 24.4211C13.6081 23.8992 12.8315 24.6785 13.3105 25.1988C14.339 26.317 15.6623 25.9771 16.83 25.3435C17.0929 25.6377 17.419 25.8528 17.8403 25.938C18.2759 26.026 20.0541 25.3105 20.1503 25.4425C20.5639 26.0084 21.5187 25.4601 21.1002 24.8875C20.8158 24.4987 20.554 24.2913 20.0502 24.2594Z" fill="#2196F3"/>
<path d="M15.7663 13.1796L16.137 12.9162L15.9478 12.5026C15.7762 12.1275 15.5007 11.836 15.1503 11.66L13.9843 11.0649C14.5206 10.7222 14.9061 10.2063 15.1366 9.52435C15.5128 9.295 15.7498 8.88745 15.7498 8.43315V8.0663C15.7498 7.69395 15.5881 7.3469 15.3131 7.10655C15.1168 6.06265 14.4089 4.9335 12.2661 4.9335C12.182 4.9335 12.0995 4.9368 12.0181 4.9434C11.7304 4.96705 11.3113 4.9434 10.9527 4.7025C10.7861 4.5903 10.7008 4.5034 10.659 4.45005C10.4847 4.2284 10.1921 4.15085 9.93081 4.25755C9.67011 4.3648 9.5172 4.6255 9.54911 4.906C9.56561 5.04735 9.58926 5.21235 9.62501 5.3922C9.67121 5.6232 9.67396 5.68975 9.67231 5.70735C9.66791 5.7266 9.63601 5.7948 9.61071 5.8498C9.57221 5.9323 9.5249 6.03405 9.46935 6.1699C9.35 6.46085 9.26311 6.77765 9.21031 7.11535C8.94136 7.35625 8.78241 7.7 8.78241 8.06685V8.4337C8.78241 8.888 9.01946 9.29555 9.39566 9.5249C9.62501 10.2041 10.0089 10.7189 10.5413 11.061L9.32911 11.6589C8.99196 11.8426 8.72906 12.1357 8.56901 12.5064L8.39301 12.914L8.75381 13.1719C9.78836 13.91 11.0022 14.3 12.2661 14.3C13.5256 14.3 14.7356 13.9128 15.7663 13.1796ZM9.90881 12.5988L11.2536 11.9366C11.539 11.7953 11.7167 11.5098 11.7167 11.1914V10.4093L11.3845 10.2657C10.8829 10.0501 10.5562 9.6327 10.384 8.9892L10.3054 8.69605L10.0155 8.60585C9.9517 8.58605 9.8835 8.5239 9.8835 8.4337V8.06685C9.8835 7.98875 9.93575 7.93375 9.9847 7.9079L10.2427 7.7704L10.2729 7.47945C10.307 7.1522 10.3791 6.85245 10.488 6.58735C10.5353 6.4713 10.576 6.38495 10.609 6.314C10.6942 6.1314 10.7459 5.9961 10.7646 5.84375C11.1661 6.0115 11.6221 6.0775 12.1066 6.04065C12.1589 6.03625 12.2122 6.03405 12.2667 6.03405C13.8721 6.03405 14.1746 6.76775 14.2588 7.48495L14.2923 7.7726L14.5486 7.90735C14.5976 7.9332 14.6504 7.9882 14.6504 8.06685V8.4337C14.6504 8.5239 14.5816 8.58605 14.5184 8.60585L14.2285 8.69605L14.1499 8.9892C13.9777 9.6327 13.6505 10.0507 13.1494 10.2657L12.8172 10.4093V11.1947C12.8172 11.5082 12.9905 11.792 13.271 11.9355L14.5992 12.6137C13.1577 13.3886 11.3454 13.3837 9.90881 12.5988Z" fill="#2196F3"/>
</svg>
