<svg width="27" height="32" viewBox="0 0 27 32" fill="none" xmlns="http://www.w3.org/2000/svg">
<path d="M16.8333 0.666779H0.499985C0.223861 0.666779 0 0.89064 0 1.16676V28.1666C0 28.3552 0.105994 28.5276 0.274227 28.6127C0.345583 28.6488 0.422876 28.6666 0.499985 28.6666C0.604572 28.6666 0.708608 28.6338 0.79606 28.5696L8.6667 22.7871L10.9082 24.4339C11.1306 24.5974 11.4437 24.5496 11.6071 24.327C11.7706 24.1045 11.7228 23.7915 11.5002 23.628L8.96271 21.7637C8.78658 21.6343 8.54675 21.6343 8.37062 21.7637L0.999971 27.1789V5.00013H16.3333V16.7023C16.3333 16.9784 16.5572 17.2023 16.8333 17.2023C17.1094 17.2023 17.3333 16.9784 17.3333 16.7023V1.16676C17.3333 0.89064 17.1094 0.666779 16.8333 0.666779ZM16.3333 4.0001H0.999971V1.66675H16.3333V4.0001Z" fill="white"/>
<path d="M8.66673 6.00009C8.39061 6.00009 8.16675 6.22395 8.16675 6.50008V20.1667C8.16675 20.4428 8.39061 20.6667 8.66673 20.6667C8.94286 20.6667 9.16672 20.4428 9.16672 20.1667V6.50008C9.16672 6.22395 8.94286 6.00009 8.66673 6.00009Z" fill="white"/>
<path d="M19.8334 17.6667C15.8817 17.6667 12.6667 20.8817 12.6667 24.8334C12.6667 28.7851 15.8816 32 19.8334 32C23.7852 32 27.0001 28.7851 27.0001 24.8333C27.0001 20.8816 23.7851 17.6667 19.8334 17.6667ZM19.8334 31C16.4331 31 13.6668 28.2337 13.6668 24.8334C13.6668 21.4331 16.4331 18.6667 19.8334 18.6667C23.2338 18.6667 26.0001 21.4331 26.0001 24.8334C26.0001 28.2337 23.2337 31 19.8334 31Z" fill="white"/>
<path d="M24.43 23.3397C24.3712 23.1587 24.2147 23.0268 24.0264 22.9995L21.4389 22.6235L20.2817 20.2788C20.1974 20.1081 20.0236 20 19.8333 20C19.643 20 19.4692 20.1081 19.3849 20.2788L18.2277 22.6235L15.6402 22.9995C15.4519 23.0268 15.2954 23.1588 15.2366 23.3397C15.1778 23.5208 15.2269 23.7195 15.3631 23.8523L17.2355 25.6774L16.7936 28.2546C16.7614 28.4422 16.8385 28.6318 16.9925 28.7437C17.1465 28.8556 17.3506 28.8703 17.5191 28.7817L19.8334 27.565L22.1478 28.7817C22.221 28.8202 22.3008 28.8392 22.3804 28.8392C22.4841 28.8392 22.5873 28.807 22.6744 28.7437C22.8283 28.6318 22.9054 28.4422 22.8733 28.2546L22.4313 25.6774L24.3038 23.8523C24.4397 23.7195 24.4888 23.5208 24.43 23.3397ZM21.5448 25.1448C21.427 25.2597 21.3732 25.4252 21.401 25.5874L21.7163 27.425L20.066 26.5574C19.9931 26.5191 19.9132 26.5 19.8333 26.5C19.7535 26.5 19.6735 26.5191 19.6006 26.5574L17.9503 27.4251L18.2656 25.5875C18.2933 25.4253 18.2396 25.2598 18.1217 25.1449L16.7866 23.8434L18.6317 23.5754C18.7946 23.5517 18.9353 23.4494 19.0082 23.3018L19.8333 21.6298L20.6585 23.3018C20.7313 23.4493 20.872 23.5517 21.0349 23.5754L22.88 23.8434L21.5448 25.1448Z" fill="white"/>
</svg>
