<svg width="74" height="74" viewBox="0 0 74 74" fill="none" xmlns="http://www.w3.org/2000/svg">
<g clip-path="url(#clip0_117_240)">
<path d="M48.8955 37.507L58.9224 27.48C60.5446 25.8575 62.593 24.6167 64.8455 23.892C66.6635 23.3075 68.3443 22.2798 69.707 20.9192C72.0545 18.5704 73.3184 15.4478 73.2657 12.1263C73.2131 8.8056 71.8479 5.72263 69.422 3.44523L67.9609 2.07367L65.3053 10.5871C64.7192 12.4636 62.7147 13.5148 60.8379 12.9302C59.3395 12.4623 58.3325 11.0939 58.3325 9.52495C58.3325 9.16485 58.3871 8.80761 58.4949 8.46258L61.1357 0L59.1309 0.325606C56.8792 0.691223 54.79 1.67407 53.0887 3.16851C50.0994 5.79864 48.5782 9.72533 49.019 13.6721C49.4968 17.9562 47.9702 22.2151 44.8307 25.3561L40.7868 29.3986L33.4426 22.0545L35.7016 19.7955L31.2568 15.3507C33.6425 11.8365 38.9649 7.0485 43.9035 4.85647L46.1386 3.86442L44.0299 2.62628C37.8814 -0.984352 30.0049 0.0766724 24.8751 5.20669C24.4531 5.62872 11.8035 18.2783 11.8035 18.2783L10.9246 19.1572L11.7946 20.045C12.5581 20.8237 12.2841 22.4007 11.1961 23.4887C10.1081 24.5765 8.531 24.8505 7.75256 24.0872L6.8648 23.2171L0.0839844 29.9978L12.7915 42.7055L19.5686 35.9283L18.7061 35.0408C17.9486 34.2613 18.2249 32.6865 19.3095 31.6019C20.3939 30.5173 21.9686 30.241 22.7482 30.9986L23.6358 31.8612L25.7602 29.7368L33.1043 37.0809L23.6651 46.5203C22.0444 48.1423 19.9969 49.383 17.7439 50.108C15.8987 50.7012 14.2632 51.7019 12.8827 53.0824C10.535 55.4302 9.27077 58.5519 9.323 61.8724C9.3754 65.1932 10.7406 68.2767 13.1672 70.5548L14.6283 71.9263L17.2847 63.4134C17.5676 62.504 18.1882 61.7597 19.0321 61.3173C19.8758 60.8748 20.8409 60.7874 21.7508 61.0715C23.2497 61.5384 24.257 62.9055 24.257 64.4731C24.257 64.8295 24.2018 65.1879 24.093 65.5374L21.4546 74L23.4592 73.6742C25.7115 73.3081 27.8005 72.3253 29.501 70.8313C32.4903 68.2012 34.0115 64.2745 33.5707 60.3279C33.0929 56.0436 34.6195 51.7848 37.7594 48.6437L41.2135 45.1896L64.6453 68.6214C65.7044 69.6806 67.0952 70.2099 68.4864 70.2099C69.8774 70.2097 71.2687 69.6802 72.3277 68.6214C74.4456 66.5034 74.4456 63.0571 72.3277 60.9391L48.8955 37.507ZM46.6065 27.1315C50.2886 23.4475 52.0777 18.4402 51.5147 13.3934C51.1645 10.2604 52.373 7.14275 54.7465 5.05435C55.5495 4.34906 56.4627 3.78758 57.4479 3.38764L56.0981 7.71411C55.9145 8.3012 55.8216 8.91039 55.8216 9.52495C55.8216 12.1984 57.5368 14.5301 60.0906 15.3274C63.2886 16.3237 66.704 14.5329 67.7026 11.3353L69.0889 6.8908C70.1437 8.43429 70.7246 10.2505 70.7551 12.1661C70.7971 14.8021 69.7942 17.2802 67.9319 19.1431C66.8353 20.2383 65.5384 21.0317 64.0769 21.5014C61.4463 22.348 59.05 23.8014 57.1469 25.7043L47.1199 35.7313L42.5628 31.1742L46.6065 27.1315ZM26.6506 6.98237C30.3731 3.25975 35.8039 2.07534 40.5377 3.75627C36.0441 6.3253 31.7706 10.3288 29.46 13.5429L24.775 8.85783C25.8342 7.79881 26.5555 7.07746 26.6506 6.98237ZM22.9995 10.6335L32.1506 19.7954L23.8052 28.1406L14.6487 18.9841C16.451 17.182 20.1726 13.4603 22.9995 10.6335ZM3.63518 29.9978L6.87367 26.7593L16.03 35.9158L12.7915 39.1543L3.63518 29.9978ZM17.534 29.8264C16.787 30.5732 16.2722 31.4408 15.995 32.3296L10.4691 26.8035C11.3572 26.5261 12.2243 26.0117 12.9718 25.2642C13.799 24.437 14.3397 23.4634 14.59 22.4769L20.3221 28.2091C19.3348 28.4592 18.3605 28.9997 17.534 29.8264ZM35.983 46.868C32.3008 50.552 30.5117 55.5593 31.0747 60.6063C31.4249 63.7391 30.2164 66.8568 27.8427 68.9452C27.0398 69.6504 26.1266 70.2121 25.1409 70.612L26.4902 66.2842C26.6745 65.6923 26.768 65.0827 26.768 64.4729C26.768 61.7999 25.0517 59.4694 22.4982 58.6741C20.9486 58.1903 19.3035 58.3393 17.8658 59.0931C16.4274 59.8473 15.3697 61.1164 14.8873 62.6659L13.5008 67.109C12.4453 65.5649 11.8641 63.7482 11.8338 61.8324C11.7922 59.1976 12.7953 56.7204 14.6584 54.8575C15.7539 53.7619 17.0507 52.968 18.5126 52.4981C21.1441 51.6512 23.54 50.1978 25.4411 48.2952L34.88 38.8563L39.4373 43.4136L35.983 46.868ZM70.5519 66.8455C69.4128 67.9846 67.5593 67.9846 66.4206 66.8455L27.536 27.961L31.6671 23.8299L70.5517 62.7143C71.6906 63.8535 71.6906 65.7067 70.5519 66.8455Z" fill="white"/>
</g>
<defs>
<clipPath id="clip0_117_240">
<rect width="74" height="74" fill="white"/>
</clipPath>
</defs>
</svg>
