<svg width="26" height="23" viewBox="0 0 26 23" fill="none" xmlns="http://www.w3.org/2000/svg">
<path d="M25.1333 0H4.33331C3.85536 0 3.46663 0.388679 3.46663 0.866682V1.73336H2.6C2.12204 1.73336 1.73331 2.12204 1.73331 2.60005V3.46673H0.866682C0.388679 3.46668 0 3.85536 0 4.33331V21.2333C0 21.7112 0.388679 22.1 0.866682 22.1H21.6666C22.1446 22.1 22.5333 21.7113 22.5333 21.2333V20.3666H23.4C23.8779 20.3666 24.2666 19.9779 24.2666 19.4999V18.6332H25.1333C25.6113 18.6332 26 18.2446 26 17.7666V0.86658C25.9999 0.388679 25.6113 0 25.1333 0ZM0.866682 4.33331H21.6666L21.6671 14.014L19.393 11.4148C19.2279 11.2259 18.9055 11.2259 18.7404 11.4148L15.9948 14.5526L8.52103 7.90962C8.3568 7.76317 8.1098 7.76317 7.94557 7.90962L0.866682 14.202V4.33331ZM21.6675 19.9372V21.2333H0.866682V15.3608L8.23335 8.81271L15.7456 15.4899C15.8314 15.5666 15.9458 15.6013 16.0607 15.5987C16.1763 15.5913 16.2838 15.5385 16.3597 15.4514L19.0667 12.3583L21.6672 15.3305L21.6676 19.9299C21.6676 19.9307 21.6667 19.9321 21.6667 19.9333C21.6667 19.9346 21.6675 19.9359 21.6675 19.9372ZM23.4 19.5H22.5333V4.33331C22.5333 3.85536 22.1446 3.46663 21.6666 3.46663H2.6V2.59999H23.4V19.5ZM25.1333 17.7666H24.2666V2.59999C24.2666 2.12204 23.8779 1.73331 23.3999 1.73331H4.33331V0.866682H25.1333V17.7666Z" fill="white"/>
</svg>
